<?xml version="1.0" encoding="utf-8"?>
<!-- Generator: Adobe Illustrator 25.0.0, SVG Export Plug-In . SVG Version: 6.00 Build 0)  -->
<svg version="1.1" id="Layer_1" xmlns="http://www.w3.org/2000/svg" xmlns:xlink="http://www.w3.org/1999/xlink" x="0px" y="0px"
	 viewBox="0 0 793.5 609.1" style="enable-background:new 0 0 793.5 609.1;" xml:space="preserve">
<g>
	<g>
		<rect x="718.8" y="351.1" width="5" height="50.1"/>
	</g>
	<g>
		<g>
			<g>
				<g>
					<path d="M69.9,236.4H13.8v-29h146.6v29h-56.1v165.2H69.9V236.4L69.9,236.4z"/>
				</g>
			</g>
		</g>
		<g>
			<g>
				<rect x="459.7" y="236.1" width="33.6" height="68.9"/>
			</g>
			<g>
				<path d="M604.4,259.3c-2.4-2.1-6.1-3.1-11.1-3.1c-4.8,0-8.3,1-10.8,3.1c-2.4,2.1-4.1,5-4.9,8.6c-0.8,3.6-1.2,7.8-1.2,12.4v75.9
					c0,4.5,0.4,8.6,1.1,12.4c0.7,3.8,2.3,6.8,4.8,9c2.4,2.2,6.1,3.2,11,3.2c5,0,8.7-1.1,11.1-3.2c2.4-2.2,4-5.2,4.8-9
					s1.2-7.9,1.2-12.4v-75.9c0-4.6-0.4-8.8-1.2-12.4C608.4,264.3,606.8,261.5,604.4,259.3z"/>
			</g>
			<g>
				<polygon points="269.7,343.7 258.5,274.5 247.3,343.7 				"/>
			</g>
			<g>
				<path d="M580.9,401.7c-4.3-0.4-9.9-1.7-15.5-5.2c-3.1-1.9-5.4-4-6.7-5.4c-3.5-3.7-6.2-8.1-8.2-13.3c-3-8.1-4.5-17.8-4.5-28.9
					v-61.6c0-11.1,1.5-20.6,4.5-28.6c1.8-4.8,4.3-8.9,7.6-12.4c1-1.1,3.5-3.5,7.3-5.8c1-0.6,4.6-2.8,10.9-4.5l0,0l0,0h-53.1v164.8
					l57.6,1C580.9,401.8,580.9,401.7,580.9,401.7z"/>
			</g>
			<g>
				<rect x="459.7" y="326.4" width="33.6" height="74.5"/>
			</g>
			<g>
				<path d="M379.5,236.1c-0.1,0-0.2,0-0.3,0c-0.3,0-0.6,0-0.9,0c0,0,0,0,0,0.1c4.8,0.4,11.1,1.7,17.3,5.4c3.3,2,5.5,4,6,4.6
					c3.2,3.1,5.7,6.9,7.6,11.4c2.9,7,4.4,15.4,4.4,25.3c0,10.7-1.8,19.4-5.5,25.9c-3.7,6.6-8.8,11.4-15.4,14.3
					c-6.6,3-14.3,4.5-23.3,4.5h-16.3v73.2l0,0l0,0h76.7V236.1H379.5z"/>
			</g>
			<g>
				<polygon points="274.4,236.1 323,236.1 323,400.8 307.3,400.8 				"/>
			</g>
			<g>
				<polygon points="237.6,400.8 244.3,362.8 272.9,362.8 279.5,400.8 				"/>
			</g>
			<g>
				<path d="M150.2,235.5c0,0,0,0.1,0.1,0.1c9.4,0.5,16.5,2.7,20.9,4.4c8.1,3.2,11.8,6.7,12.9,7.8c1.7,1.7,3.2,3.6,4.6,5.7
					c4,6.4,6,15.1,6,26c0,6.6-0.6,12.6-1.8,17.9s-3.3,9.8-6.2,13.5s-7,6.6-12.1,8.6l23,81.2h11.8l33-164.8L150.2,235.5z"/>
			</g>
			<g>
				<polygon points="133.6,325.4 147.5,325.4 167.4,400.8 133.6,400.8 				"/>
			</g>
			<g>
				<path d="M707.9,236.1c-4.9,0-9.8,0-14.7,0c0,48,0,96,0,144c6.7,0,13.4,0,20.1,0"/>
			</g>
			<g>
				<path d="M663.1,236.1H611l0,0c5.8,1.6,9.4,3.8,10.5,4.5c6.8,4.2,11.8,10.3,14.8,18.2c3.1,7.9,4.6,17.5,4.6,28.6v61.8
					c0,11-1.5,20.5-4.6,28.6c-2,5.2-4.7,9.7-8.3,13.4c-2.8,2.9-5.5,4.7-6.6,5.4c-4.5,2.8-9.2,4.2-13.3,4.8c0,0.1,0,0.2,0,0.3
					l54.9-0.3L663.1,236.1z"/>
			</g>
			<g>
				<path d="M364.5,306.4c5.4,0,9.7-0.8,12.7-2.3c3-1.6,5.2-4.1,6.3-7.5c1.2-3.5,1.7-8.1,1.7-13.9c0-6-0.4-10.8-1.3-14.5
					s-2.8-6.5-5.7-8.2c-2.9-1.8-7.5-2.6-13.7-2.6h-11.4v49.2h11.4V306.4z"/>
			</g>
			<g>
				<path d="M156.9,303.9c3.5-1.7,5.9-4.4,7.4-8.1s2.2-8.5,2.2-14.3c0-8.3-1.5-14.5-4.6-18.6c-3-4.1-8.8-6.2-17.4-6.2h-11v49.8h9.4
					C148.8,306.4,153.5,305.6,156.9,303.9z"/>
			</g>
		</g>
		<g>
			<g>
				<path d="M632.9,207.3v29H689c0.4,47.9,0.8,95.9,1.1,143.8h33.5c0.2-47.9,0.2-95.9-0.1-143.8h56.2v-29H632.9z"/>
			</g>
		</g>
	</g>
</g>
</svg>
