<svg xmlns="http://www.w3.org/2000/svg" xmlns:xlink="http://www.w3.org/1999/xlink" viewBox="0 0 479.5 479.5"><defs><style>.cls-1{opacity:0.62;}.cls-2{fill:#231f20;}</style></defs><g id="Layer_1" data-name="Layer 1"><image class="cls-1" width="640" height="640" transform="scale(0.75)" xlink:href="../../../../../Downloads/avatar-g7ea49972d_640.png"/></g><g id="Layer_2" data-name="Layer 2"><path class="cls-2" d="M48.5,239.5V719H528V239.5Zm165.39,69.82c18.73-36.77,74.1-35.41,74.1-35.41,52.3-.68,75.35,35.41,75.35,35.41,36.43,64-10.55,148.08-10.55,148.08-71.49,83.07-128,0-128,0C174.06,363.11,213.89,309.32,213.89,309.32Zm224.43,348s-148.17,60.85-303.58-1.79c0,0-12.38-4.59-10.59-17s3.79-84.92,22-114.87c0,0,7.15-17,30.47-25.19,0,0,24-6.47,41.36-16.26,0,0,65.11,71.23,141.19,0,0,0,12.26,8.68,47,19.15,0,0,23.49,7.4,32.42,42.13,0,0,15.07,63.83,13.28,98.55C451.85,642,452.87,652,438.32,657.32Z" transform="translate(-48.5 -239.5)"/></g></svg>